<svg id="Layer_1" data-name="Layer 1" xmlns="http://www.w3.org/2000/svg" viewBox="0 0 1280 1024"><defs><style>.cls-1{fill:#59a0c3;}.cls-2{fill:none;stroke:#59a0c3;stroke-miterlimit:10;stroke-width:20px;}</style></defs><title>1</title><rect class="cls-1" x="603.77" y="280.31" width="25.48" height="196.31" rx="9.57"/><rect class="cls-1" x="605.18" y="560.72" width="25.48" height="182.97" rx="9.57"/><rect class="cls-1" x="723.76" y="343.64" width="28.81" height="194.24" rx="9.57" transform="matrix(-0.5, -0.87, 0.87, -0.5, 725.53, 1300.4)"/><rect class="cls-1" x="484.45" y="485.81" width="28.81" height="188.83" rx="9.57" transform="matrix(-0.5, -0.87, 0.87, -0.5, 245.79, 1302.35)"/><rect class="cls-1" x="490.88" y="343.64" width="28.55" height="195.98" rx="9.57" transform="translate(-129.88 658.29) rotate(-60)"/><rect class="cls-1" x="726.39" y="482.08" width="28.55" height="201.27" rx="9.57" transform="translate(-134.31 932.79) rotate(-60)"/><rect class="cls-1" x="577.81" y="296.94" width="22.28" height="102.24" rx="10.44" transform="translate(-82.14 480.89) rotate(-41.78)"/><rect class="cls-1" x="632.24" y="295.53" width="22.79" height="102.24" rx="10.44" transform="translate(853.63 1046.89) rotate(-135)"/><rect class="cls-1" x="734.7" y="357.93" width="22.37" height="102.24" rx="10.44" transform="translate(1398.89 954.24) rotate(-168.88)"/><rect class="cls-1" x="449.78" y="402.25" width="20.7" height="102.24" rx="10.35" transform="translate(731.92 -132.63) rotate(70.31)"/><rect class="cls-1" x="467.71" y="354.23" width="23.82" height="102.24" rx="10.44" transform="translate(-38.2 50.09) rotate(-5.75)"/><rect class="cls-1" x="431.24" y="531.83" width="24.35" height="88.68" rx="10.44" transform="translate(-277.28 672.09) rotate(-60)"/><rect class="cls-1" x="459.05" y="582.22" width="21.93" height="89.93" rx="10.44" transform="translate(866.98 1302.99) rotate(-173.58)"/><rect class="cls-1" x="579.09" y="638.34" width="19.72" height="102.24" rx="9.86" transform="translate(432.78 1582.68) rotate(-129.58)"/><rect class="cls-1" x="636.1" y="638.34" width="19.98" height="102.24" rx="9.99" transform="translate(1590.46 658.34) rotate(131.25)"/><rect class="cls-1" x="778.3" y="528.44" width="21.62" height="102.24" rx="10.44" transform="translate(1021.3 -371.58) rotate(67.42)"/><rect class="cls-1" x="754.58" y="577.04" width="23.23" height="102.24" rx="10.44" transform="translate(1677.48 1016.98) rotate(163.76)"/><rect class="cls-1" x="756.29" y="405.29" width="23.81" height="102.24" rx="10.44" transform="translate(1418.56 -156.34) rotate(105.99)"/><circle class="cls-2" cx="617.97" cy="521.38" r="45.54"/></svg>