<svg id="Layer_1" data-name="Layer 1" xmlns="http://www.w3.org/2000/svg" viewBox="0 0 1280 1024"><defs><style>.cls-1{fill:#fff;}.cls-2{fill:none;stroke:#fff;stroke-miterlimit:10;stroke-width:20px;}</style></defs><title>1</title><rect class="cls-1" x="589.67" y="277.31" width="25.48" height="196.31" rx="9.57"/><rect class="cls-1" x="591.08" y="557.72" width="25.48" height="182.97" rx="9.57"/><rect class="cls-1" x="709.66" y="340.64" width="28.81" height="194.24" rx="9.57" transform="translate(706.98 1283.69) rotate(-120)"/><rect class="cls-1" x="470.35" y="482.81" width="28.81" height="188.83" rx="9.57" transform="matrix(-0.5, -0.87, 0.87, -0.5, 227.24, 1285.65)"/><rect class="cls-1" x="476.79" y="340.64" width="28.55" height="195.98" rx="9.57" transform="translate(-134.33 644.58) rotate(-60)"/><rect class="cls-1" x="712.29" y="479.08" width="28.55" height="201.27" rx="9.57" transform="translate(-138.76 919.08) rotate(-60)"/><rect class="cls-1" x="563.71" y="293.94" width="22.28" height="102.24" rx="10.44" transform="translate(-83.73 470.74) rotate(-41.78)"/><rect class="cls-1" x="618.14" y="292.53" width="22.79" height="102.24" rx="10.44" transform="translate(831.69 1031.81) rotate(-135)"/><rect class="cls-1" x="720.6" y="354.93" width="22.37" height="102.24" rx="10.44" transform="translate(1371.55 945.58) rotate(-168.88)"/><rect class="cls-1" x="435.68" y="399.25" width="20.7" height="102.24" rx="10.35" transform="translate(719.75 -121.34) rotate(70.31)"/><rect class="cls-1" x="453.61" y="351.23" width="23.82" height="102.24" rx="10.44" transform="translate(-37.97 48.66) rotate(-5.75)"/><rect class="cls-1" x="417.14" y="528.83" width="24.35" height="88.68" rx="10.44" transform="translate(-281.73 658.39) rotate(-60)"/><rect class="cls-1" x="444.96" y="579.22" width="21.93" height="89.93" rx="10.44" transform="translate(839.21 1295.43) rotate(-173.58)"/><rect class="cls-1" x="564.99" y="635.34" width="19.72" height="102.24" rx="9.86" transform="translate(412.01 1566.9) rotate(-129.58)"/><rect class="cls-1" x="622.01" y="635.34" width="19.98" height="102.24" rx="9.99" transform="translate(1564.81 663.96) rotate(131.25)"/><rect class="cls-1" x="764.21" y="525.44" width="21.62" height="102.24" rx="10.44" transform="translate(1009.84 -360.42) rotate(67.42)"/><rect class="cls-1" x="740.48" y="574.04" width="23.23" height="102.24" rx="10.44" transform="translate(1649.01 1015.04) rotate(163.76)"/><rect class="cls-1" x="742.19" y="402.29" width="23.81" height="102.24" rx="10.44" transform="translate(1397.69 -146.61) rotate(105.99)"/><circle class="cls-2" cx="603.87" cy="518.38" r="45.54"/></svg>