<svg id="Layer_1" data-name="Layer 1" xmlns="http://www.w3.org/2000/svg" viewBox="0 0 1280 1024"><defs><style>.cls-1,.cls-3{fill:none;stroke-miterlimit:10;stroke-width:20px;}.cls-1{stroke:#fcfcfc;}.cls-2{fill:#fff;}.cls-3{stroke:#fff;}</style></defs><title>2</title><path class="cls-1" d="M460.05,612.63s-8.46,153.23,181.77,198.46C641.82,811.09,694.51,657.86,460.05,612.63Z"/><path class="cls-1" d="M850.65,612.63s8.46,153.23-181.77,198.46C668.88,811.09,616.19,657.86,850.65,612.63Z"/><rect class="cls-2" x="589.98" y="691.51" width="21.15" height="127.38" rx="6" transform="translate(-360.4 668.27) rotate(-46.34)"/><rect class="cls-2" x="703.21" y="693.35" width="21.15" height="127.38" rx="6" transform="translate(658.91 1796.08) rotate(-133.66)"/><rect class="cls-2" x="645.23" y="523.87" width="19.77" height="298.87"/><path class="cls-3" d="M545.29,288.35c-3.86-6.71-14.14-3.94-14.14,3.81V397.92s-2.46,70.16,72,109.54c0,0,92,35.69,151.39-45.54,0,0,17.54-18.77,20.92-71.38l0-96.62s1.49-23.38-17.28-6.15l-104.9,107-108-106.39Z"/><rect class="cls-2" x="606.85" y="370.23" width="18.05" height="130.05" transform="translate(769.34 1173.63) rotate(-136.99)"/><rect class="cls-2" x="621.42" y="260.68" width="19.57" height="88.65" transform="translate(884.73 958.58) rotate(-136.99)"/><rect class="cls-2" x="671.59" y="268.12" width="21.98" height="80.11" transform="translate(1379.24 33.32) rotate(134.17)"/></svg>