<svg id="Layer_1" data-name="Layer 1" xmlns="http://www.w3.org/2000/svg" viewBox="0 0 1280 1024"><defs><style>.cls-1{fill:none;stroke:#9f9e9e;stroke-miterlimit:10;stroke-width:20px;}.cls-2{fill:#9f9e9e;}</style></defs><title>2</title><path class="cls-1" d="M424.7,621.37S416.24,774.6,606.47,819.83C606.47,819.83,659.16,666.6,424.7,621.37Z"/><path class="cls-1" d="M815.3,621.37s8.46,153.23-181.77,198.46C633.53,819.83,580.84,666.6,815.3,621.37Z"/><rect class="cls-2" x="554.63" y="700.24" width="21.15" height="127.38" rx="6" transform="translate(-377.66 645.4) rotate(-46.34)"/><rect class="cls-2" x="667.86" y="702.09" width="21.15" height="127.38" rx="6" transform="translate(592.83 1785.27) rotate(-133.66)"/><rect class="cls-2" x="609.88" y="532.61" width="19.77" height="298.87"/><path class="cls-1" d="M509.94,297.09c-3.86-6.72-14.13-3.94-14.13,3.8V406.66s-2.47,70.15,72,109.54c0,0,92,35.69,151.38-45.54,0,0,17.54-18.77,20.92-71.39l0-96.61s1.49-23.39-17.28-6.16L618,403.5,510,297.12Z"/><rect class="cls-2" x="571.5" y="378.97" width="18.05" height="130.05" transform="translate(702.19 1164.64) rotate(-136.99)"/><rect class="cls-2" x="586.07" y="269.41" width="19.57" height="88.65" transform="translate(817.57 949.6) rotate(-136.99)"/><rect class="cls-2" x="636.24" y="276.86" width="21.98" height="80.11" transform="translate(1325.53 73.5) rotate(134.17)"/></svg>