<svg id="Layer_1" data-name="Layer 1" xmlns="http://www.w3.org/2000/svg" viewBox="0 0 1280 1024"><defs><style>.cls-1{fill:none;stroke-width:20px;}.cls-1,.cls-3{stroke:#98c267;stroke-miterlimit:10;}.cls-2,.cls-3{fill:#98c267;}</style></defs><title>2</title><path class="cls-1" d="M449.7,566.18s-8.46,153.23,181.77,198.46C631.47,764.64,684.16,611.41,449.7,566.18Z"/><path class="cls-1" d="M840.3,566.18s8.46,153.23-181.77,198.46C658.53,764.64,605.84,611.41,840.3,566.18Z"/><rect class="cls-2" x="579.63" y="645.06" width="21.15" height="127.38" rx="6" transform="translate(-330 646.4) rotate(-46.34)"/><rect class="cls-2" x="692.86" y="646.9" width="21.15" height="127.38" rx="6" transform="translate(675.02 1710.07) rotate(-133.66)"/><rect class="cls-3" x="634.88" y="477.42" width="19.77" height="298.87"/><path class="cls-1" d="M534.94,241.9c-3.86-6.71-14.13-3.94-14.13,3.81V351.47s-2.47,70.16,72,109.54c0,0,92,35.69,151.38-45.54,0,0,17.54-18.77,20.92-71.38l0-96.62s1.49-23.38-17.28-6.15L643,348.32,535,241.93Z"/><rect class="cls-3" x="596.5" y="323.78" width="18.05" height="130.05" transform="translate(783.11 1086.15) rotate(-136.99)"/><rect class="cls-2" x="611.07" y="214.23" width="19.57" height="88.65" transform="translate(898.5 871.11) rotate(-136.99)"/><rect class="cls-2" x="661.24" y="221.67" width="21.98" height="80.11" transform="translate(1328.36 -38.07) rotate(134.17)"/></svg>