<svg id="Layer_1" data-name="Layer 1" xmlns="http://www.w3.org/2000/svg" viewBox="0 0 1280 1024"><defs><style>.cls-1{fill:none;stroke:#fff;stroke-miterlimit:10;stroke-width:18px;}</style></defs><title>3</title><circle class="cls-1" cx="706" cy="490" r="154.38"/><path class="cls-1" d="M436.79,505.79l83.26,27.4a5.17,5.17,0,0,0,6.72-5.73l-.75-4.65a155.8,155.8,0,0,1-.32-47.57l.53-3.64a5.17,5.17,0,0,0-6.88-5.61l-82.71,30A5.17,5.17,0,0,0,436.79,505.79Z"/><path class="cls-1" d="M507.32,299.09l39.35,77.8a5.17,5.17,0,0,0,8.79.72l3.3-4.53a153.25,153.25,0,0,1,32.58-32.74l3.58-2.65a5.17,5.17,0,0,0-.91-8.85l-79.92-36.78A5.17,5.17,0,0,0,507.32,299.09Z"/><path class="cls-1" d="M701.78,218l-27.65,82.64a5.17,5.17,0,0,0,5.71,6.75l4.75-.75a159.45,159.45,0,0,1,47.93-.32l3.73.54a5.17,5.17,0,0,0,5.59-6.91l-30.31-82.1A5.17,5.17,0,0,0,701.78,218Z"/><path class="cls-1" d="M713.59,769.91l27.65-82.64a5.17,5.17,0,0,0-5.71-6.75l-4.75.76a160.11,160.11,0,0,1-47.93.32l-3.72-.54a5.17,5.17,0,0,0-5.59,6.9l30.3,82.1A5.17,5.17,0,0,0,713.59,769.91Z"/><path class="cls-1" d="M901.76,291.12,825,333.25a5.16,5.16,0,0,0-.36,8.84l4.59,3a153.29,153.29,0,0,1,34.31,31l2.88,3.54a5.17,5.17,0,0,0,8.77-1.27L909,297.65A5.17,5.17,0,0,0,901.76,291.12Z"/><path class="cls-1" d="M984.58,484.49l-84.3-24.05a5.17,5.17,0,0,0-6.49,6l.94,4.61A156.28,156.28,0,0,1,897,518.57l-.38,3.66a5.16,5.16,0,0,0,7.09,5.33l81.43-33.31A5.17,5.17,0,0,0,984.58,484.49Z"/><path class="cls-1" d="M913.36,689l-42.48-76.16a5.17,5.17,0,0,0-8.81-.36L859,617.11a152.53,152.53,0,0,1-31.22,34l-3.47,2.79a5.17,5.17,0,0,0,1.26,8.81l81.35,33.56A5.17,5.17,0,0,0,913.36,689Z"/><path class="cls-1" d="M509.55,697.73l76.79-42.13a5.17,5.17,0,0,0,.36-8.85l-4.6-3a153.24,153.24,0,0,1-34.3-31l-2.89-3.54a5.17,5.17,0,0,0-8.77,1.27l-33.85,80.7A5.18,5.18,0,0,0,509.55,697.73Z"/></svg>