<svg id="Layer_1" data-name="Layer 1" xmlns="http://www.w3.org/2000/svg" viewBox="0 0 1280 1024"><defs><style>.cls-1,.cls-2{fill:none;stroke:#fff;stroke-miterlimit:10;}.cls-1{stroke-width:16px;}.cls-2{stroke-width:8px;}.cls-3{fill:#fff;}</style></defs><title>4</title><path class="cls-1" d="M687.85,294.23l-58.13,82.15s-.82,8.52-14.16,3.08c0,0-23.28-10.61-26.77-4.81a3,3,0,0,0-.2.4c-2.67,6.67,34.56,129.64,34.56,129.64s2.16,18.46-13.53,3.08l-39.7-42.46s-12.92-17.54-17.23.61c0,0-.61,21.54-7.07,21.23l-73.54,3.08s-13.23,2.15-6.16,12.62l36.31,69.23s.62,6.15-7.38,13.23c0,0-17.05,9.85-8.12,16.61a22,22,0,0,0,2.58.62l121.23,35.18s10.05,1.84-1.23,18.25l-8,13.95s-7.59,8-1.85,11.7c0,0,3.69,3.48,18.87-2.47l46.36-10.25c.92.3,14.73-3.85,12.52,5.74l-7.18,46s-1.65,9.08,17.82,9"/><path class="cls-1" d="M687.21,729.62c23.23.92,18.47-10.13,18.46-10.23l-7.18-45.95c-.82-10.05,12.51-5.74,12.51-5.74L757.36,678c15.18,5.95,18.87,2.46,18.87,2.46,5.74-3.69-1.85-11.69-1.85-11.69l-8-14c-11.28-16.41-1.23-18.25-1.23-18.25l121.23-35.18a22.07,22.07,0,0,0,2.59-.62c8.92-6.76-8.12-16.61-8.12-16.61-8-7.08-7.39-13.23-7.39-13.23l36.31-69.24c7.08-10.46-6.15-12.61-6.15-12.61L830.08,486c-6.46.31-7.08-21.23-7.08-21.23-4.31-18.15-17.23-.61-17.23-.61l-39.69,42.46c-15.7,15.38-13.54-3.08-13.54-3.08s37.23-123,34.56-129.64a1.87,1.87,0,0,0-.2-.4c-3.49-5.8-26.77,4.81-26.77,4.81-13.34,5.44-14.16-3.08-14.16-3.08L687.85,293"/><path class="cls-2" d="M682.69,298.54s5.87-23.85,11.08-2.12"/><path class="cls-3" d="M693.77,401.62s-45.19,118.67,0,195.47C693.77,597.09,731.27,464.37,693.77,401.62Z"/><path class="cls-3" d="M541.62,523.93s18.46,55.84,118.15,78.92C659.77,602.85,632.08,543.78,541.62,523.93Z"/><path class="cls-3" d="M843.46,523.93s-86,13.81-114.46,78.92C729,602.85,839.77,569.62,843.46,523.93Z"/></svg>