<svg id="Layer_1" data-name="Layer 1" xmlns="http://www.w3.org/2000/svg" viewBox="0 0 1280 1024"><defs><style>.cls-1,.cls-2{fill:none;stroke-miterlimit:10;}.cls-1{stroke:#fdb745;stroke-width:16px;}.cls-2{stroke:#fff;stroke-width:8px;}.cls-3{fill:#fdb745;}</style></defs><title>4</title><path class="cls-1" d="M690.44,302.66l-58.13,82.15s-.82,8.51-14.15,3.08c0,0-23.29-10.61-26.78-4.81a2.49,2.49,0,0,0-.2.4c-2.67,6.66,34.57,129.64,34.57,129.64s2.15,18.46-13.54,3.07l-39.7-42.46s-12.92-17.54-17.23.62c0,0-.61,21.54-7.07,21.23l-73.54,3.08s-13.23,2.15-6.16,12.61l36.31,69.23s.62,6.16-7.38,13.23c0,0-17.05,9.86-8.12,16.62a23.9,23.9,0,0,0,2.58.61l121.23,35.18s10,1.85-1.23,18.26l-8,14s-7.59,8-1.85,11.69c0,0,3.7,3.49,18.88-2.46l46.35-10.26c.93.31,14.73-3.85,12.52,5.75L672.62,729s-1.64,9.08,17.82,9"/><path class="cls-1" d="M689.8,738c23.23.92,18.47-10.12,18.46-10.23l-7.18-45.94c-.82-10.06,12.51-5.75,12.51-5.75L760,686.38c15.18,6,18.87,2.46,18.87,2.46,5.75-3.69-1.84-11.69-1.84-11.69l-8-13.95c-11.29-16.41-1.23-18.26-1.23-18.26L889,609.76a23.9,23.9,0,0,0,2.58-.61c8.93-6.76-8.12-16.62-8.12-16.62-8-7.08-7.39-13.23-7.39-13.23l36.31-69.23c7.08-10.46-6.15-12.62-6.15-12.62l-73.54-3.07c-6.46.31-7.08-21.23-7.08-21.23-4.31-18.16-17.23-.62-17.23-.62L768.67,515c-15.69,15.39-13.54-3.07-13.54-3.07s37.23-123,34.56-129.64a2.57,2.57,0,0,0-.19-.41c-3.49-5.8-26.78,4.82-26.78,4.82-13.33,5.43-14.15-3.08-14.15-3.08l-58.13-82.16"/><path class="cls-2" d="M685.28,307s5.87-23.85,11.08-2.12"/><path class="cls-3" d="M696.36,410s-45.19,118.68,0,195.47C696.36,605.51,733.87,472.79,696.36,410Z"/><path class="cls-3" d="M544.21,532.35s18.46,55.84,118.15,78.92C662.36,611.27,634.67,552.2,544.21,532.35Z"/><path class="cls-3" d="M846.05,532.35s-86,13.82-114.46,78.92C731.59,611.27,842.36,578.05,846.05,532.35Z"/></svg>