<svg id="Layer_1" data-name="Layer 1" xmlns="http://www.w3.org/2000/svg" viewBox="0 0 1280 1024"><defs><style>.cls-1{fill:#fff;}</style></defs><title>WINTER</title><rect class="cls-1" x="581.92" y="277.31" width="38.15" height="468.31"/><rect class="cls-1" x="586.82" y="271.23" width="36.11" height="468.31" transform="translate(469.64 1281.9) rotate(-120)"/><rect class="cls-1" x="590.04" y="273.34" width="36.97" height="468.31" transform="translate(-135.24 780.75) rotate(-60)"/><rect class="cls-1" x="562.35" y="294.46" width="23.84" height="102.24" transform="translate(-84.22 470.48) rotate(-41.78)"/><rect class="cls-1" x="618.14" y="292.53" width="22.79" height="102.24" transform="translate(831.69 1031.81) rotate(-135)"/><rect class="cls-1" x="715.26" y="358.27" width="27.01" height="102.24" transform="translate(1364.91 951.62) rotate(-168.88)"/><rect class="cls-1" x="434.12" y="401.47" width="25.42" height="102.24" transform="translate(722.37 -120.62) rotate(70.31)"/><rect class="cls-1" x="453.6" y="356.51" width="28" height="102.24" transform="translate(-38.49 48.9) rotate(-5.75)"/><rect class="cls-1" x="420.53" y="522.24" width="30.5" height="102.24" transform="translate(-278.65 664.07) rotate(-60)"/><rect class="cls-1" x="445.63" y="567.29" width="27.94" height="102.24" transform="matrix(-0.99, -0.11, 0.11, -0.99, 847.19, 1284.32)"/><rect class="cls-1" x="559.89" y="638.86" width="26.51" height="102.24" transform="translate(406.5 1571.34) rotate(-129.58)"/><rect class="cls-1" x="615.94" y="639.88" width="25.95" height="102.24" transform="translate(1563.1 673.8) rotate(131.25)"/><rect class="cls-1" x="762.24" y="524.13" width="24.46" height="102.24" transform="translate(1008.29 -360.72) rotate(67.42)"/><rect class="cls-1" x="736.71" y="574.58" width="27.08" height="102.24" transform="translate(1645.54 1016.62) rotate(163.76)"/><rect class="cls-1" x="741.13" y="403.09" width="25.48" height="102.24" transform="translate(1398.17 -145.38) rotate(105.99)"/></svg>